<svg id="Слой_1" data-name="Слой 1" xmlns="http://www.w3.org/2000/svg" viewBox="0 0 18 37.67"><defs><style>.cls-1{fill:#314559;}.cls-2{fill:#d34346;}</style></defs><title>check-box-sprite</title><g id="Page-1"><g id="Core"><g id="check-box-outline"><path id="Shape" class="cls-1" d="M5.9,7.93L4.5,9.33,9,13.83l10-10-1.4-1.4L9,11,5.9,7.93h0ZM17,16.83H3v-14H13v-2H3a2,2,0,0,0-2,2v14a2,2,0,0,0,2,2H17a2,2,0,0,0,2-2v-8H17v8h0Z" transform="translate(-1 -0.83)"/></g></g></g><g id="Page-1-2" data-name="Page-1"><g id="Core-2" data-name="Core"><g id="check-box-outline-2" data-name="check-box-outline"><path id="Shape-2" data-name="Shape" class="cls-2" d="M5.9,27.6L4.5,29,9,33.5l10-10-1.4-1.4L9,30.7,5.9,27.6h0ZM17,36.5H3v-14H13v-2H3a2,2,0,0,0-2,2v14a2,2,0,0,0,2,2H17a2,2,0,0,0,2-2v-8H17v8h0Z" transform="translate(-1 -0.83)"/></g></g></g></svg>