<svg id="Layer_1" data-name="Layer 1" xmlns="http://www.w3.org/2000/svg" viewBox="0 0 367.03 129.21"><defs><style>.cls-1{fill:#fff;}</style></defs><title>chevron-sprite</title><path class="cls-1" d="M359.22,68.16h0L311,17.93a3.29,3.29,0,0,1,.06-4.56l8.63-8.83a3.13,3.13,0,0,1,4.47-.06l58.92,61.37a3,3,0,0,1,.87,2.34,3.19,3.19,0,0,1-.87,2.34l-58.92,61.34a3.13,3.13,0,0,1-4.47-.06L311,123a3.29,3.29,0,0,1-.06-4.56Z" transform="translate(-16.9 -3.57)"/><path class="cls-1" d="M41.6,68.58h0l48.76,49.73a3.29,3.29,0,0,1,0,4.56l-8.53,8.92a3.13,3.13,0,0,1-4.47.1L17.79,71.14a3,3,0,0,1-.89-2.33,3.19,3.19,0,0,1,.84-2.35L76,4.51a3.13,3.13,0,0,1,4.47,0l8.72,8.74a3.29,3.29,0,0,1,.11,4.56Z" transform="translate(-16.9 -3.57)"/></svg>