<?xml version="1.0" encoding="utf-8"?>
<!-- Generator: Adobe Illustrator 19.2.0, SVG Export Plug-In . SVG Version: 6.00 Build 0)  -->
<svg version="1.1" id="Слой_1" xmlns="http://www.w3.org/2000/svg" xmlns:xlink="http://www.w3.org/1999/xlink" x="0px" y="0px"
	 viewBox="0 0 378.3 49.8" style="enable-background:new 0 0 378.3 49.8;" xml:space="preserve">
<style type="text/css">
	.st0{fill:#BD2C30;}
</style>
<title>services_atlas</title>
<path class="st0" d="M103.6,5.4c5.7,0,11.3,0.1,17,0c3.9-0.1,5.9,1.3,5.9,5.5c-0.1,9.3-0.1,18.6,0,27.9c0,3.6-1.7,5.3-5.1,5.3
	c-11.8,0-23.6,0-35.4,0c-3.4,0-5.3-1.9-5.3-5.3c0-9.3,0-18.6,0-27.9c0-3.7,1.8-5.5,5.5-5.4C92,5.5,97.8,5.4,103.6,5.4z M118.6,30.3
	c1.8-0.2,5.2,1.3,5.1-3.9c0-4.5-2.7-4.2-5.6-4.1s-6.1-1-6.1,4C112.1,30.9,114.8,30.5,118.6,30.3L118.6,30.3z M117.6,41.2
	c3.4,0,6.1,0.5,6.2-4c0-5.1-3.3-3.9-6.1-4c-2.8-0.1-5.6-0.7-5.6,4C112.1,42.2,115.3,41.1,117.6,41.2L117.6,41.2z M89.2,22.4
	c-2.7,0-5.7-0.7-5.8,3.9c-0.1,4.8,2.9,4.3,5.9,4.2c2.6-0.1,5.6,0.8,5.7-3.8S92.2,22.2,89.2,22.4z M102.9,22.4c-2.3-0.1-5-0.5-5,4
	c-0.1,5,3.1,4,6,4.1s5.6,0.5,5.7-4C109.5,21.6,106.3,22.4,102.9,22.4z M89.3,41.2c2.7,0,5.6,0.7,5.7-3.9c0.1-4.8-2.9-4.2-5.8-4.2
	c-2.7,0-5.7-0.7-5.8,3.8C83.3,41.7,86.2,41.4,89.3,41.2z M102.9,41.2c3.5,0,6.6,0.7,6.6-4.1c0-4.5-2.8-4-5.7-4s-6-0.9-6,4.1
	C97.9,41.7,100.6,41.3,102.9,41.2L102.9,41.2z M94.6,11.4c-3.6,0.5-7.2,1.3-10.8,2.2c-0.4,0.1-0.2,4.7,0.3,4.8c3.5,0.6,7,1,10.5,1.1
	V11.4L94.6,11.4z M98.2,19.6c3.5-0.2,7-0.6,10.5-1.2c0.4-0.1,0.5-5.1,0.1-5.2c-3.5-0.7-7-1.2-10.6-1.4
	C98.2,11.8,98.2,19.6,98.2,19.6z M112.4,19h10.8v-6.6h-10.8C112.4,12.4,112.4,19,112.4,19z"/>
<path class="st0" d="M15.1,38.7c3.2-4.1,2.4-6.6-1.2-9.9C8.7,24,9.6,17,15.2,12.3c7.6-6.4,21.5-6.5,29.2-0.2
	c6.4,5.3,6.7,13.4,0,18.2c-3.6,2.6-8.4,3.6-12.7,4.9c-4.2,1.2-8.5,1.8-12.8,2.7C17.6,38.1,16.4,38.4,15.1,38.7z"/>
<path class="st0" d="M216.3,5h15.5c-4.7,5-5.1,11.4-1.6,17.1s7.4,11.5,11,17.3c3.2,5.1,2.2,7-3.6,7c-9.6,0.1-19.3,0.1-28.9,0
	c-5.8,0-6.7-1.6-3.7-6.6c3.3-5.4,7.1-10.5,10-16.1c1.7-3.3,2.7-6.9,3-10.6C218.3,10.6,217,8,216.3,5z M233.2,32.8
	c-0.9-1.8-1.9-3.6-3-5.3c-3.8-4.9-5.9-10.2-5.1-16.6c0.1-1.1-1.3-2.4-2-3.6c-0.7,1.3-2.1,2.7-1.9,3.8c0.8,6.6-1.5,12-5.3,17.1
	c-0.8,1.3-1.6,2.7-2.2,4.2c2,0.2,3.3,0.3,4.6,0.3C222.8,32.8,227.5,32.8,233.2,32.8z"/>
<path class="st0" d="M364,42.4l-7.6-15.5c-6.4,3.5-7.3,5.3-6.3,11.5c0.2,1.3-0.5,2.8-0.7,3.9l-13.9-13.9c5-1.6,13.2,2.7,15.3-7
	l-15.5-7.6c0-0.4,0-0.9,0-1.3c1.6-0.3,3.2-1,4.7-0.8c4.9,0.6,9.8,1.5,14.7,2.7c3.3,0.9,5.3-0.1,7.4-2.4c2.3-2.4,4.7-4.6,7.4-6.6
	c0.8-0.6,2.3-0.3,3.5-0.4c-0.1,1.2,0.3,2.7-0.3,3.5c-2.1,2.8-4.5,5.4-7,7.8c-2.1,2-3,3.9-2.2,7c1.2,4.8,2.1,9.7,2.8,14.7
	c0.2,1.5-0.4,3.1-0.6,4.7L364,42.4z"/>
<path class="st0" d="M52.4,40.2c0.5,1.1,0.9,2,1.4,2.9s1,1.6,1.9,2.9l-25-6c12-2.3,22.4-5.8,23.6-20.3
	C62.8,23.5,62.1,32.4,52.4,40.2z"/>
<path class="st0" d="M288.6,4.8c7,0,14,0.1,21,0c3.8-0.1,5.5,1.6,5.4,5.4c-0.1,10.5-0.1,20.9,0,31.4c0,3.5-1.5,5.2-5.1,5.2
	c-14.1-0.1-28.3-0.1-42.4,0c-3.9,0-5.4-2-5.4-5.5c0-10.1,0-20.3,0-30.4c0-4.1,1.7-6.1,6-6C274.9,4.9,281.7,4.8,288.6,4.8z
	 M312.1,43.9c0-11.6,0.1-22.4-0.1-33.2c0-1.1-2.1-3-3.2-3c-13.3-0.2-26.6-0.1-40-0.2c-2.8,0-3.9,1.2-3.9,3.9c0,9.7-0.1,19.3,0.2,29
	c0,1.2,1.9,3.3,2.9,3.4C282.4,44,296.9,43.9,312.1,43.9z"/>
<path class="st0" d="M301.7,39.3V12.1h5.9v27.2H301.7z"/>
<path class="st0" d="M286.3,39.5h-5.9V16h5.9V39.5z"/>
<path class="st0" d="M297.1,39.4h-5.7V23h5.7V39.4z"/>
<path class="st0" d="M269.5,30h5.9v9.4l-5.9,0.3V30z"/>
<path class="st0" d="M165.5,24.9c0-1.9-0.7-3.6-2.1-5c-1.4-1.4-3-2.1-5-2.1c-1.9,0-3.6,0.7-5,2.1c-1.4,1.4-2.1,3-2.1,5
	s0.7,3.6,2.1,5c1.4,1.4,3,2.1,5,2.1c1.9,0,3.6-0.7,5-2.1C164.8,28.5,165.5,26.8,165.5,24.9z M186.5,38.9c0-0.9-0.3-1.8-1-2.5
	c-0.7-0.7-1.5-1-2.5-1s-1.8,0.3-2.5,1c-0.7,0.7-1,1.5-1,2.5c0,1,0.3,1.8,1,2.5c0.7,0.7,1.5,1,2.5,1c1,0,1.8-0.3,2.5-1
	C186.2,40.7,186.5,39.9,186.5,38.9z M186.5,10.9c0-0.9-0.3-1.8-1-2.5s-1.5-1-2.5-1s-1.8,0.3-2.5,1c-0.7,0.7-1,1.5-1,2.5
	c0,1,0.3,1.8,1,2.5c0.7,0.7,1.5,1,2.5,1c1,0,1.8-0.3,2.5-1C186.2,12.7,186.5,11.9,186.5,10.9z M176,22.4v5.1c0,0.2-0.1,0.4-0.2,0.5
	c-0.1,0.2-0.3,0.3-0.4,0.3l-4.2,0.7c-0.2,0.6-0.5,1.3-0.9,2.1c0.6,0.9,1.4,1.9,2.5,3.1c0.1,0.2,0.2,0.4,0.2,0.5
	c0,0.2-0.1,0.4-0.2,0.5c-0.4,0.5-1.2,1.4-2.3,2.4c-1.1,1.1-1.8,1.6-2.1,1.6c-0.2,0-0.4-0.1-0.6-0.2l-3.1-2.5
	c-0.7,0.3-1.4,0.6-2.1,0.8c-0.2,2-0.4,3.4-0.6,4.2c-0.1,0.4-0.4,0.7-0.8,0.7H156c-0.2,0-0.4-0.1-0.5-0.2c-0.2-0.1-0.3-0.3-0.3-0.5
	l-0.6-4.2c-0.6-0.2-1.3-0.5-2.1-0.8l-3.2,2.4c-0.1,0.1-0.3,0.2-0.5,0.2c-0.2,0-0.4-0.1-0.6-0.2c-2.6-2.4-3.9-3.9-3.9-4.4
	c0-0.2,0.1-0.3,0.2-0.5c0.2-0.3,0.6-0.7,1.1-1.5c0.6-0.7,1-1.3,1.3-1.7c-0.4-0.8-0.7-1.6-1-2.2l-4.2-0.7c-0.2,0-0.3-0.1-0.5-0.3
	c-0.1-0.2-0.2-0.3-0.2-0.5v-5.1c0-0.2,0.1-0.4,0.2-0.5c0.1-0.2,0.3-0.3,0.4-0.3l4.2-0.7c0.2-0.6,0.5-1.3,0.9-2.1
	c-0.6-0.9-1.4-1.9-2.5-3.1c-0.1-0.2-0.2-0.4-0.2-0.5c0-0.2,0.1-0.4,0.2-0.5c0.4-0.5,1.1-1.4,2.2-2.4c1.1-1.1,1.8-1.6,2.2-1.6
	c0.2,0,0.4,0.1,0.6,0.2l3.1,2.5c0.6-0.3,1.3-0.6,2.1-0.9c0.2-2,0.4-3.4,0.6-4.2c0.1-0.4,0.4-0.7,0.8-0.7h5.1c0.2,0,0.4,0.1,0.5,0.2
	c0.2,0.1,0.3,0.3,0.3,0.5l0.6,4.2c0.6,0.2,1.3,0.5,2.1,0.8l3.2-2.4c0.1-0.1,0.3-0.2,0.5-0.2c0.2,0,0.4,0.1,0.6,0.2
	c2.6,2.4,3.9,3.9,3.9,4.4c0,0.2-0.1,0.3-0.2,0.5c-0.2,0.3-0.6,0.8-1.1,1.5c-0.5,0.7-1,1.2-1.2,1.6c0.4,0.9,0.7,1.6,0.9,2.2l4.2,0.6
	c0.2,0,0.3,0.1,0.5,0.3C176,22,176,22.2,176,22.4z M193.6,37v3.8c0,0.3-1.4,0.6-4.1,0.8c-0.2,0.5-0.5,1-0.8,1.4
	c0.9,2.1,1.4,3.3,1.4,3.8c0,0.1,0,0.1-0.1,0.2c-2.2,1.3-3.4,1.9-3.4,1.9c-0.1,0-0.6-0.4-1.3-1.3s-1.2-1.5-1.4-1.9
	c-0.4,0-0.6,0.1-0.8,0.1c-0.2,0-0.5,0-0.8-0.1c-0.3,0.4-0.7,1-1.4,1.9c-0.7,0.9-1.1,1.3-1.3,1.3c0,0-1.2-0.6-3.4-1.9
	c-0.1-0.1-0.1-0.1-0.1-0.2c0-0.5,0.5-1.7,1.4-3.8c-0.3-0.5-0.6-0.9-0.8-1.4c-2.7-0.3-4.1-0.6-4.1-0.8V37c0-0.3,1.4-0.6,4.1-0.8
	c0.2-0.5,0.5-1,0.8-1.4c-0.9-2.1-1.4-3.3-1.4-3.8c0-0.1,0-0.1,0.1-0.2c0.1,0,0.4-0.2,1-0.5c0.6-0.3,1.1-0.6,1.6-0.9
	c0.5-0.3,0.8-0.4,0.8-0.4c0.1,0,0.6,0.4,1.3,1.3c0.7,0.8,1.2,1.5,1.4,1.8c0.4,0,0.6-0.1,0.8-0.1c0.2,0,0.5,0,0.8,0.1
	c0.9-1.3,1.8-2.3,2.5-3.1l0.2-0.1c0.1,0,1.2,0.6,3.4,1.9c0.1,0.1,0.1,0.1,0.1,0.2c0,0.5-0.5,1.7-1.4,3.8c0.3,0.4,0.6,0.9,0.8,1.4
	C192.2,36.4,193.6,36.7,193.6,37z M193.6,9v3.8c0,0.3-1.4,0.6-4.1,0.8c-0.2,0.5-0.5,1-0.8,1.4c0.9,2.1,1.4,3.3,1.4,3.8
	c0,0.1,0,0.1-0.1,0.2c-2.2,1.3-3.4,1.9-3.4,1.9c-0.1,0-0.6-0.4-1.3-1.3s-1.2-1.5-1.4-1.9c-0.4,0-0.6,0.1-0.8,0.1
	c-0.2,0-0.5,0-0.8-0.1c-0.3,0.4-0.7,1-1.4,1.9c-0.7,0.9-1.1,1.3-1.3,1.3c0,0-1.2-0.6-3.4-1.9c-0.1-0.1-0.1-0.1-0.1-0.2
	c0-0.5,0.5-1.7,1.4-3.8c-0.3-0.5-0.6-0.9-0.8-1.4c-2.7-0.3-4.1-0.6-4.1-0.8V9c0-0.3,1.4-0.6,4.1-0.8c0.2-0.5,0.5-1,0.8-1.4
	c-0.9-2.1-1.4-3.3-1.4-3.8c0-0.1,0-0.1,0.1-0.2c0.1,0,0.4-0.2,1-0.5c0.6-0.3,1.1-0.6,1.6-0.9c0.5-0.3,0.8-0.4,0.8-0.4
	c0.1,0,0.6,0.4,1.3,1.3c0.7,0.8,1.2,1.5,1.4,1.8c0.4,0,0.6-0.1,0.8-0.1c0.2,0,0.5,0,0.8,0.1c0.9-1.3,1.8-2.3,2.5-3.1l0.2-0.1
	c0.1,0,1.2,0.6,3.4,1.9c0.1,0.1,0.1,0.1,0.1,0.2c0,0.5-0.5,1.7-1.4,3.8c0.3,0.4,0.6,0.9,0.8,1.4C192.2,8.4,193.6,8.7,193.6,9z"/>
</svg>
