<?xml version="1.0" encoding="utf-8"?>
<!-- Generator: Adobe Illustrator 19.2.0, SVG Export Plug-In . SVG Version: 6.00 Build 0)  -->
<svg version="1.1" id="Слой_1" xmlns="http://www.w3.org/2000/svg" xmlns:xlink="http://www.w3.org/1999/xlink" x="0px" y="0px"
	 viewBox="0 0 595 49.8" style="enable-background:new 0 0 595 49.8;" xml:space="preserve">
<style type="text/css">
	.st0{fill:#BD2C30;}
</style>
<title>services_atlas</title>
<path class="st0" d="M145.4,6.2c5.7,0,11.3,0.1,17,0c3.9-0.1,5.9,1.3,5.9,5.5c-0.1,9.3-0.1,18.6,0,27.9c0,3.6-1.7,5.3-5.1,5.3
	c-11.8,0-23.6,0-35.4,0c-3.4,0-5.3-1.9-5.3-5.3c0-9.3,0-18.6,0-27.9c0-3.7,1.8-5.5,5.5-5.4C133.8,6.3,139.6,6.2,145.4,6.2z
	 M160.4,31.1c1.8-0.2,5.2,1.3,5.1-3.9c0-4.5-2.7-4.2-5.6-4.1c-2.9,0.1-6.1-1-6.1,4C153.9,31.7,156.6,31.3,160.4,31.1L160.4,31.1z
	 M159.4,42c3.4,0,6.1,0.5,6.2-4c0-5.1-3.3-3.9-6.1-4s-5.6-0.7-5.6,4C153.9,43,157.1,41.9,159.4,42L159.4,42z M131,23.2
	c-2.7,0-5.7-0.7-5.8,3.9c-0.1,4.8,2.9,4.3,5.9,4.2c2.6-0.1,5.6,0.8,5.7-3.8C136.9,22.9,134,23,131,23.2z M144.7,23.2
	c-2.3-0.1-5-0.5-5,4c-0.1,5,3.1,4,6,4.1c2.9,0.1,5.6,0.5,5.7-4C151.3,22.4,148.1,23.2,144.7,23.2z M131.1,42c2.7,0,5.6,0.7,5.7-3.9
	c0.1-4.8-2.9-4.2-5.8-4.2c-2.7,0-5.7-0.7-5.8,3.8C125.1,42.5,128,42.2,131.1,42z M144.7,42c3.5,0,6.6,0.7,6.6-4.1c0-4.5-2.8-4-5.7-4
	s-6-0.9-6,4.1C139.7,42.5,142.4,42.1,144.7,42L144.7,42z M136.4,12.2c-3.6,0.5-7.2,1.3-10.8,2.2c-0.4,0.1-0.2,4.7,0.3,4.8
	c3.5,0.6,7,1,10.5,1.1V12.2L136.4,12.2z M140,20.4c3.5-0.2,7-0.6,10.5-1.2c0.4-0.1,0.5-5.1,0.1-5.2c-3.5-0.7-7-1.2-10.6-1.4V20.4z
	 M154.2,19.8H165v-6.6h-10.8V19.8z"/>
<path class="st0" d="M19.5,38.3c3.2-4.1,2.4-6.6-1.2-9.9c-5.2-4.8-4.3-11.8,1.3-16.5c7.6-6.4,21.5-6.5,29.2-0.2
	c6.4,5.3,6.7,13.4,0,18.2c-3.6,2.6-8.4,3.6-12.7,4.9c-4.2,1.2-8.5,1.8-12.8,2.7C22,37.7,20.8,38,19.5,38.3z"/>
<path class="st0" d="M360.3,4h15.5c-4.7,5-5.1,11.4-1.6,17.1s7.4,11.5,11,17.3c3.2,5.1,2.2,7-3.6,7c-9.6,0.1-19.3,0.1-28.9,0
	c-5.8,0-6.7-1.6-3.7-6.6c3.3-5.4,7.1-10.5,10-16.1c1.7-3.3,2.7-6.9,3-10.6C362.3,9.6,361,7,360.3,4z M377.2,31.8
	c-0.9-1.8-1.9-3.6-3-5.3c-3.8-4.9-5.9-10.2-5.1-16.6c0.1-1.1-1.3-2.4-2-3.6c-0.7,1.3-2.1,2.7-1.9,3.8c0.8,6.6-1.5,12-5.3,17.1
	c-0.8,1.3-1.6,2.7-2.2,4.2c2,0.2,3.3,0.3,4.6,0.3C366.8,31.8,371.5,31.8,377.2,31.8z"/>
<path class="st0" d="M581.8,44.5L574.3,29c-6.4,3.5-7.3,5.3-6.3,11.5c0.2,1.3-0.5,2.8-0.7,3.9l-13.9-13.9c5-1.6,13.2,2.7,15.3-7
	l-15.5-7.6c0-0.4,0-0.9,0-1.3c1.6-0.3,3.2-1,4.7-0.8c4.9,0.6,9.8,1.5,14.7,2.7c3.3,0.9,5.3-0.1,7.4-2.4c2.3-2.4,4.7-4.6,7.4-6.6
	c0.8-0.6,2.3-0.3,3.5-0.4c-0.1,1.2,0.3,2.7-0.3,3.5c-2.1,2.8-4.5,5.4-7,7.8c-2.1,2-3,3.9-2.2,7c1.2,4.8,2.1,9.7,2.8,14.7
	c0.2,1.5-0.4,3.1-0.6,4.7L581.8,44.5z"/>
<path class="st0" d="M56.8,39.8c0.5,1.1,0.9,2,1.4,2.9s1,1.6,1.9,2.9l-25-6c12-2.3,22.4-5.8,23.6-20.3C67.2,23.1,66.5,32,56.8,39.8z
	"/>
<path class="st0" d="M463.6,3.9c7,0,14,0.1,21,0c3.8-0.1,5.5,1.6,5.4,5.4c-0.1,10.5-0.1,20.9,0,31.4c0,3.5-1.5,5.2-5.1,5.2
	c-14.1-0.1-28.3-0.1-42.4,0c-3.9,0-5.4-2-5.4-5.5c0-10.1,0-20.3,0-30.4c0-4.1,1.7-6.1,6-6C449.9,4,456.7,3.9,463.6,3.9z M487.1,43
	c0-11.6,0.1-22.4-0.1-33.2c0-1.1-2.1-3-3.2-3c-13.3-0.2-26.6-0.1-40-0.2c-2.8,0-3.9,1.2-3.9,3.9c0,9.7-0.1,19.3,0.2,29
	c0,1.2,1.9,3.3,2.9,3.4C457.4,43.1,471.9,43,487.1,43z"/>
<path class="st0" d="M476.7,38.4V11.2h5.9v27.2C482.6,38.4,476.7,38.4,476.7,38.4z"/>
<path class="st0" d="M461.3,38.6h-5.9V15.1h5.9V38.6z"/>
<path class="st0" d="M472.1,38.5h-5.7V22.1h5.7V38.5z"/>
<path class="st0" d="M444.5,29.1h5.9v9.4l-5.9,0.3V29.1z"/>
<path class="st0" d="M243.7,24.7c0-1.9-0.7-3.6-2.1-5c-1.4-1.4-3-2.1-5-2.1c-1.9,0-3.6,0.7-5,2.1s-2.1,3-2.1,5s0.7,3.6,2.1,5
	c1.4,1.4,3,2.1,5,2.1c1.9,0,3.6-0.7,5-2.1C243,28.3,243.7,26.6,243.7,24.7z M264.7,38.7c0-0.9-0.3-1.8-1-2.5s-1.5-1-2.5-1
	s-1.8,0.3-2.5,1s-1,1.5-1,2.5s0.3,1.8,1,2.5s1.5,1,2.5,1s1.8-0.3,2.5-1S264.7,39.7,264.7,38.7z M264.7,10.7c0-0.9-0.3-1.8-1-2.5
	s-1.5-1-2.5-1s-1.8,0.3-2.5,1s-1,1.5-1,2.5s0.3,1.8,1,2.5s1.5,1,2.5,1s1.8-0.3,2.5-1S264.7,11.7,264.7,10.7z M254.2,22.2v5.1
	c0,0.2-0.1,0.4-0.2,0.5c-0.1,0.2-0.3,0.3-0.4,0.3l-4.2,0.7c-0.2,0.6-0.5,1.3-0.9,2.1c0.6,0.9,1.4,1.9,2.5,3.1
	c0.1,0.2,0.2,0.4,0.2,0.5c0,0.2-0.1,0.4-0.2,0.5c-0.4,0.5-1.2,1.4-2.3,2.4c-1.1,1.1-1.8,1.6-2.1,1.6c-0.2,0-0.4-0.1-0.6-0.2
	l-3.1-2.5c-0.7,0.3-1.4,0.6-2.1,0.8c-0.2,2-0.4,3.4-0.6,4.2c-0.1,0.4-0.4,0.7-0.8,0.7h-5.2c-0.2,0-0.4-0.1-0.5-0.2
	c-0.2-0.1-0.3-0.3-0.3-0.5l-0.6-4.2c-0.6-0.2-1.3-0.5-2.1-0.8l-3.2,2.4c-0.1,0.1-0.3,0.2-0.5,0.2s-0.4-0.1-0.6-0.2
	c-2.6-2.4-3.9-3.9-3.9-4.4c0-0.2,0.1-0.3,0.2-0.5c0.2-0.3,0.6-0.7,1.1-1.5c0.6-0.7,1-1.3,1.3-1.7c-0.4-0.8-0.7-1.6-1-2.2l-4.2-0.7
	c-0.2,0-0.3-0.1-0.5-0.3c-0.1-0.2-0.2-0.3-0.2-0.5v-5.1c0-0.2,0.1-0.4,0.2-0.5c0.1-0.2,0.3-0.3,0.4-0.3l4.2-0.7
	c0.2-0.6,0.5-1.3,0.9-2.1c-0.6-0.9-1.4-1.9-2.5-3.1c-0.1-0.2-0.2-0.4-0.2-0.5c0-0.2,0.1-0.4,0.2-0.5c0.4-0.5,1.1-1.4,2.2-2.4
	c1.1-1.1,1.8-1.6,2.2-1.6c0.2,0,0.4,0.1,0.6,0.2l3.1,2.5c0.6-0.3,1.3-0.6,2.1-0.9c0.2-2,0.4-3.4,0.6-4.2c0.1-0.4,0.4-0.7,0.8-0.7
	h5.1c0.2,0,0.4,0.1,0.5,0.2c0.2,0.1,0.3,0.3,0.3,0.5l0.6,4.2c0.6,0.2,1.3,0.5,2.1,0.8l3.2-2.4c0.1-0.1,0.3-0.2,0.5-0.2
	s0.4,0.1,0.6,0.2c2.6,2.4,3.9,3.9,3.9,4.4c0,0.2-0.1,0.3-0.2,0.5c-0.2,0.3-0.6,0.8-1.1,1.5s-1,1.2-1.2,1.6c0.4,0.9,0.7,1.6,0.9,2.2
	l4.2,0.6c0.2,0,0.3,0.1,0.5,0.3C254.2,21.8,254.2,22,254.2,22.2z M271.8,36.8v3.8c0,0.3-1.4,0.6-4.1,0.8c-0.2,0.5-0.5,1-0.8,1.4
	c0.9,2.1,1.4,3.3,1.4,3.8c0,0.1,0,0.1-0.1,0.2c-2.2,1.3-3.4,1.9-3.4,1.9c-0.1,0-0.6-0.4-1.3-1.3s-1.2-1.5-1.4-1.9
	c-0.4,0-0.6,0.1-0.8,0.1c-0.2,0-0.5,0-0.8-0.1c-0.3,0.4-0.7,1-1.4,1.9s-1.1,1.3-1.3,1.3c0,0-1.2-0.6-3.4-1.9
	c-0.1-0.1-0.1-0.1-0.1-0.2c0-0.5,0.5-1.7,1.4-3.8c-0.3-0.5-0.6-0.9-0.8-1.4c-2.7-0.3-4.1-0.6-4.1-0.8v-3.8c0-0.3,1.4-0.6,4.1-0.8
	c0.2-0.5,0.5-1,0.8-1.4c-0.9-2.1-1.4-3.3-1.4-3.8c0-0.1,0-0.1,0.1-0.2c0.1,0,0.4-0.2,1-0.5s1.1-0.6,1.6-0.9s0.8-0.4,0.8-0.4
	c0.1,0,0.6,0.4,1.3,1.3c0.7,0.8,1.2,1.5,1.4,1.8c0.4,0,0.6-0.1,0.8-0.1s0.5,0,0.8,0.1c0.9-1.3,1.8-2.3,2.5-3.1l0.2-0.1
	c0.1,0,1.2,0.6,3.4,1.9c0.1,0.1,0.1,0.1,0.1,0.2c0,0.5-0.5,1.7-1.4,3.8c0.3,0.4,0.6,0.9,0.8,1.4C270.4,36.2,271.8,36.5,271.8,36.8z
	 M271.8,8.8v3.8c0,0.3-1.4,0.6-4.1,0.8c-0.2,0.5-0.5,1-0.8,1.4c0.9,2.1,1.4,3.3,1.4,3.8c0,0.1,0,0.1-0.1,0.2
	c-2.2,1.3-3.4,1.9-3.4,1.9c-0.1,0-0.6-0.4-1.3-1.3s-1.2-1.5-1.4-1.9c-0.4,0-0.6,0.1-0.8,0.1c-0.2,0-0.5,0-0.8-0.1
	c-0.3,0.4-0.7,1-1.4,1.9s-1.1,1.3-1.3,1.3c0,0-1.2-0.6-3.4-1.9c-0.1-0.1-0.1-0.1-0.1-0.2c0-0.5,0.5-1.7,1.4-3.8
	c-0.3-0.5-0.6-0.9-0.8-1.4c-2.7-0.3-4.1-0.6-4.1-0.8V8.8c0-0.3,1.4-0.6,4.1-0.8c0.2-0.5,0.5-1,0.8-1.4c-0.9-2.1-1.4-3.3-1.4-3.8
	c0-0.1,0-0.1,0.1-0.2c0.1,0,0.4-0.2,1-0.5s1.1-0.6,1.6-0.9s0.8-0.4,0.8-0.4c0.1,0,0.6,0.4,1.3,1.3c0.7,0.8,1.2,1.5,1.4,1.8
	c0.4,0,0.6-0.1,0.8-0.1s0.5,0,0.8,0.1c0.9-1.3,1.8-2.3,2.5-3.1l0.2-0.1c0.1,0,1.2,0.6,3.4,1.9c0.1,0.1,0.1,0.1,0.1,0.2
	c0,0.5-0.5,1.7-1.4,3.8c0.3,0.4,0.6,0.9,0.8,1.4C270.4,8.2,271.8,8.5,271.8,8.8z"/>
</svg>
